<svg width="277" height="50" viewBox="0 0 277 50" fill="none" xmlns="http://www.w3.org/2000/svg">
<path d="M70.3242 18.4609H74.7539L81.166 31.1211L87.4824 18.4609H91.8164V37H87.2773V24.9141L81.2207 37H79.4707L73.209 24.7773V37H70.3242V18.4609ZM107.815 37.4102C106.32 37.4102 104.925 37.1686 103.631 36.6855C102.337 36.2025 101.216 35.528 100.268 34.6621C99.3199 33.7871 98.5725 32.7526 98.0256 31.5586C97.4879 30.3555 97.219 29.0384 97.219 27.6074C97.219 26.2038 97.4879 24.9186 98.0256 23.752C98.5725 22.5762 99.3199 21.569 100.268 20.7305C101.216 19.8919 102.337 19.2402 103.631 18.7754C104.925 18.3105 106.32 18.0781 107.815 18.0781C109.309 18.0781 110.699 18.3151 111.985 18.7891C113.279 19.2539 114.4 19.9056 115.348 20.7441C116.305 21.5827 117.057 22.5853 117.604 23.752C118.151 24.9095 118.424 26.181 118.424 27.5664C118.424 28.5508 118.301 29.4805 118.055 30.3555C117.809 31.2214 117.458 32.0189 117.002 32.748C116.546 33.4772 116 34.1289 115.362 34.7031C114.724 35.2773 114.008 35.765 113.215 36.166C112.431 36.5671 111.584 36.8724 110.672 37.082C109.761 37.3008 108.808 37.4102 107.815 37.4102ZM107.815 35.8516C108.717 35.8516 109.515 35.6465 110.207 35.2363C110.9 34.8171 111.479 34.2428 111.944 33.5137C112.408 32.7845 112.759 31.9186 112.996 30.916C113.242 29.9043 113.365 28.8014 113.365 27.6074C113.365 26.4316 113.242 25.3561 112.996 24.3809C112.759 23.4056 112.408 22.5671 111.944 21.8652C111.479 21.1634 110.9 20.6165 110.207 20.2246C109.515 19.8327 108.717 19.6367 107.815 19.6367C106.903 19.6367 106.101 19.8327 105.408 20.2246C104.716 20.6165 104.137 21.1634 103.672 21.8652C103.207 22.5671 102.856 23.4056 102.619 24.3809C102.382 25.3561 102.264 26.4316 102.264 27.6074C102.264 28.8014 102.382 29.9043 102.619 30.916C102.856 31.9186 103.207 32.7845 103.672 33.5137C104.137 34.2428 104.716 34.8171 105.408 35.2363C106.101 35.6465 106.903 35.8516 107.815 35.8516ZM123.758 18.4609H130.485C132.217 18.4609 133.807 18.666 135.256 19.0762C136.706 19.4772 137.954 20.0651 139.002 20.8398C140.051 21.6146 140.862 22.5671 141.436 23.6973C142.019 24.8275 142.311 26.1172 142.311 27.5664C142.311 28.8698 142.065 30.0957 141.573 31.2441C141.081 32.3835 140.36 33.3815 139.413 34.2383C138.474 35.0951 137.316 35.7695 135.94 36.2617C134.564 36.7539 132.987 37 131.209 37H123.758V18.4609ZM128.311 35.0996H130.731C131.624 35.0996 132.463 34.9355 133.247 34.6074C134.04 34.2793 134.732 33.7962 135.325 33.1582C135.917 32.5202 136.382 31.7363 136.719 30.8066C137.066 29.877 137.239 28.8105 137.239 27.6074C137.239 26.5684 137.075 25.6068 136.747 24.7227C136.428 23.8294 135.981 23.0592 135.407 22.4121C134.833 21.765 134.144 21.2591 133.342 20.8945C132.549 20.5208 131.679 20.334 130.731 20.334H128.311V35.0996ZM161.563 18.4609V20.0469H152.266V26.1582H159.991V27.7441H152.266V35.0996H161.563V37H147.714V18.4609H161.563ZM165.735 18.4609H172.708C173.911 18.4609 174.959 18.5885 175.853 18.8438C176.755 19.0898 177.502 19.4408 178.095 19.8965C178.696 20.3431 179.147 20.8763 179.448 21.4961C179.749 22.1159 179.899 22.7904 179.899 23.5195C179.899 24.0482 179.795 24.5495 179.585 25.0234C179.384 25.4883 179.097 25.9212 178.724 26.3223C178.359 26.7142 177.912 27.0651 177.384 27.375C176.864 27.6758 176.29 27.9264 175.661 28.127L182.265 37H177.315L171.095 28.6191H170.288V37H165.735V18.4609ZM170.288 26.9922H171.272C171.828 26.9922 172.343 26.9147 172.817 26.7598C173.291 26.6048 173.701 26.3861 174.048 26.1035C174.394 25.8118 174.663 25.4564 174.854 25.0371C175.055 24.6178 175.155 24.1439 175.155 23.6152C175.155 23.123 175.078 22.6719 174.923 22.2617C174.777 21.8516 174.572 21.5007 174.308 21.209C174.043 20.9082 173.724 20.6758 173.351 20.5117C172.977 20.3477 172.571 20.2656 172.134 20.2656H170.288V26.9922ZM185.261 18.4609H188.173L198.741 30.2461V18.4609H201.585V37.2734H199.63L188.146 24.2578V37H185.261V18.4609ZM223.369 18.0781L232.064 37H227.416L225.091 31.9414H217.886L215.453 37H212.363L221.4 18.0781H223.369ZM218.748 30.2188H224.326L221.578 24.2305L218.748 30.2188ZM235.935 18.4609H242.908C244.111 18.4609 245.159 18.5885 246.053 18.8438C246.955 19.0898 247.702 19.4408 248.295 19.8965C248.896 20.3431 249.348 20.8763 249.648 21.4961C249.949 22.1159 250.1 22.7904 250.1 23.5195C250.1 24.0482 249.995 24.5495 249.785 25.0234C249.585 25.4883 249.297 25.9212 248.924 26.3223C248.559 26.7142 248.113 27.0651 247.584 27.375C247.064 27.6758 246.49 27.9264 245.861 28.127L252.465 37H247.516L241.295 28.6191H240.488V37H235.935V18.4609ZM240.488 26.9922H241.473C242.029 26.9922 242.544 26.9147 243.018 26.7598C243.491 26.6048 243.902 26.3861 244.248 26.1035C244.594 25.8118 244.863 25.4564 245.055 25.0371C245.255 24.6178 245.355 24.1439 245.355 23.6152C245.355 23.123 245.278 22.6719 245.123 22.2617C244.977 21.8516 244.772 21.5007 244.508 21.209C244.243 20.9082 243.924 20.6758 243.551 20.5117C243.177 20.3477 242.771 20.2656 242.334 20.2656H240.488V26.9922ZM271.184 18.4609V20.0469H264.772V37H260.233V20.0469H253.807V18.4609H271.184Z" fill="white"/>
<rect width="5" height="50" fill="white"/>
<rect x="22.4988" y="27.4679" width="31.8182" height="7.02735" transform="rotate(-135 22.4988 27.4679)" fill="white"/>
<rect x="22.9652" y="19.2511" width="28.7698" height="7.34065" transform="rotate(20 22.9652 19.2511)" fill="white"/>
<rect x="48.1818" y="3.52332" width="42.5863" height="4.9827" transform="rotate(135 48.1818 3.52332)" fill="white"/>
<path fill-rule="evenodd" clip-rule="evenodd" d="M40.4545 50V4.18113L44.6357 0H50V50H40.4545Z" fill="white"/>
</svg>
