<svg width="30" height="31" viewBox="0 0 30 31" fill="none" xmlns="http://www.w3.org/2000/svg">
<path d="M14.995 7.62443C10.7384 7.62443 7.30506 11.0471 7.30506 15.2905C7.30506 19.5339 10.7384 22.9566 14.995 22.9566C19.2515 22.9566 22.6849 19.5339 22.6849 15.2905C22.6849 11.0471 19.2515 7.62443 14.995 7.62443ZM14.995 20.2744C12.2443 20.2744 9.99553 18.0393 9.99553 15.2905C9.99553 12.5417 12.2376 10.3066 14.995 10.3066C17.7524 10.3066 19.9944 12.5417 19.9944 15.2905C19.9944 18.0393 17.7457 20.2744 14.995 20.2744ZM24.7931 7.31085C24.7931 8.30497 23.99 9.09893 22.9994 9.09893C22.0022 9.09893 21.2058 8.2983 21.2058 7.31085C21.2058 6.3234 22.0089 5.52277 22.9994 5.52277C23.99 5.52277 24.7931 6.3234 24.7931 7.31085ZM29.8862 9.12562C29.7724 6.73039 29.2236 4.60871 27.4635 2.86066C25.71 1.11261 23.5817 0.56551 21.179 0.445415C18.7027 0.305304 11.2805 0.305304 8.80423 0.445415C6.40824 0.558838 4.27997 1.10594 2.51979 2.85399C0.75961 4.60204 0.217501 6.72372 0.0970329 9.11895C-0.0435137 11.5876 -0.0435137 18.9868 0.0970329 21.4554C0.210809 23.8506 0.75961 25.9723 2.51979 27.7203C4.27997 29.4684 6.40155 30.0155 8.80423 30.1356C11.2805 30.2757 18.7027 30.2757 21.179 30.1356C23.5817 30.0222 25.71 29.4751 27.4635 27.7203C29.2169 25.9723 29.7657 23.8506 29.8862 21.4554C30.0268 18.9868 30.0268 11.5942 29.8862 9.12562ZM26.6871 24.1041C26.1651 25.4118 25.1545 26.4193 23.836 26.9464C21.8617 27.727 17.1768 27.5469 14.995 27.5469C12.8132 27.5469 8.12157 27.7203 6.15392 26.9464C4.84215 26.426 3.83156 25.4185 3.30283 24.1041C2.51979 22.1359 2.70049 17.4656 2.70049 15.2905C2.70049 13.1154 2.52648 8.43841 3.30283 6.47686C3.82486 5.16915 4.83546 4.16169 6.15392 3.63461C8.12827 2.85399 12.8132 3.03413 14.995 3.03413C17.1768 3.03413 21.8684 2.86066 23.836 3.63461C25.1478 4.15502 26.1584 5.16248 26.6871 6.47686C27.4702 8.44508 27.2894 13.1154 27.2894 15.2905C27.2894 17.4656 27.4702 22.1426 26.6871 24.1041Z" fill="white"/>
</svg>
