<svg width="50" height="51" viewBox="0 0 50 51" fill="none" xmlns="http://www.w3.org/2000/svg">
<g clip-path="url(#clip0_45_135)">
<path d="M14.995 10.6244C10.7384 10.6244 7.30506 14.0471 7.30506 18.2905C7.30506 22.5339 10.7384 25.9566 14.995 25.9566C19.2515 25.9566 22.6849 22.5339 22.6849 18.2905C22.6849 14.0471 19.2515 10.6244 14.995 10.6244ZM14.995 23.2744C12.2443 23.2744 9.99553 21.0393 9.99553 18.2905C9.99553 15.5417 12.2376 13.3066 14.995 13.3066C17.7524 13.3066 19.9944 15.5417 19.9944 18.2905C19.9944 21.0393 17.7457 23.2744 14.995 23.2744V23.2744ZM24.7931 10.3108C24.7931 11.305 23.99 12.0989 22.9994 12.0989C22.0022 12.0989 21.2058 11.2983 21.2058 10.3108C21.2058 9.3234 22.0089 8.52277 22.9994 8.52277C23.99 8.52277 24.7931 9.3234 24.7931 10.3108ZM29.8862 12.1256C29.7724 9.73039 29.2236 7.60871 27.4635 5.86066C25.71 4.11261 23.5817 3.56551 21.179 3.44542C18.7027 3.3053 11.2805 3.3053 8.80423 3.44542C6.40824 3.55884 4.27997 4.10594 2.51979 5.85399C0.75961 7.60204 0.217501 9.72372 0.0970329 12.1189C-0.0435137 14.5876 -0.0435137 21.9868 0.0970329 24.4554C0.210809 26.8506 0.75961 28.9723 2.51979 30.7203C4.27997 32.4684 6.40155 33.0155 8.80423 33.1356C11.2805 33.2757 18.7027 33.2757 21.179 33.1356C23.5817 33.0222 25.71 32.4751 27.4635 30.7203C29.2169 28.9723 29.7657 26.8506 29.8862 24.4554C30.0268 21.9868 30.0268 14.5942 29.8862 12.1256V12.1256ZM26.6871 27.1041C26.1651 28.4118 25.1545 29.4193 23.836 29.9464C21.8617 30.727 17.1768 30.5469 14.995 30.5469C12.8132 30.5469 8.12157 30.7203 6.15392 29.9464C4.84215 29.426 3.83156 28.4185 3.30283 27.1041C2.51979 25.1359 2.70049 20.4656 2.70049 18.2905C2.70049 16.1154 2.52648 11.4384 3.30283 9.47686C3.82486 8.16915 4.83546 7.16169 6.15392 6.63461C8.12827 5.85399 12.8132 6.03413 14.995 6.03413C17.1768 6.03413 21.8684 5.86066 23.836 6.63461C25.1478 7.15502 26.1584 8.16248 26.6871 9.47686C27.4702 11.4451 27.2894 16.1154 27.2894 18.2905C27.2894 20.4656 27.4702 25.1426 26.6871 27.1041Z" fill="white"/>
</g>
<defs>
<clipPath id="clip0_45_135">
<rect width="50" height="49.8339" fill="white" transform="translate(0 0.242676)"/>
</clipPath>
</defs>
</svg>
