<svg width="30" height="31" viewBox="0 0 30 31" fill="none" xmlns="http://www.w3.org/2000/svg">
<path d="M26.9162 9.0929C26.9353 9.3585 26.9353 9.62416 26.9353 9.88976C26.9353 17.9909 20.7488 27.3253 9.44162 27.3253C5.95811 27.3253 2.72209 26.3197 0 24.5743C0.494941 24.6312 0.970781 24.6502 1.48477 24.6502C4.35908 24.6502 7.00506 23.6826 9.11801 22.032C6.41496 21.9751 4.14973 20.2107 3.36926 17.7822C3.75 17.8391 4.13068 17.8771 4.53047 17.8771C5.08248 17.8771 5.63455 17.8011 6.14848 17.6684C3.33123 17.0992 1.21822 14.6328 1.21822 11.6542V11.5783C2.03672 12.0336 2.98857 12.3182 3.99738 12.3561C2.34129 11.2557 1.25631 9.37748 1.25631 7.25257C1.25631 6.11426 1.56082 5.07078 2.09385 4.16011C5.12051 7.87867 9.67002 10.3071 14.7715 10.5727C14.6763 10.1174 14.6192 9.64314 14.6192 9.16882C14.6192 5.79172 17.3603 3.04077 20.7677 3.04077C22.538 3.04077 24.1369 3.78069 25.2601 4.97594C26.6496 4.71034 27.9821 4.19807 29.1623 3.49611C28.7054 4.91906 27.7346 6.11432 26.4593 6.87315C27.6966 6.74041 28.8959 6.39884 29.9999 5.92458C29.1625 7.13875 28.1154 8.22013 26.9162 9.0929Z" fill="white"/>
</svg>
